# xmcd CD database file
#
# Track frame offsets:
#	150
#	23451
#	39667
#	62064
#	82587
#	103489
#	125681
#	151752
#	170786
#	188097
#	203319
#	218735
#
# Disc length: 3111 seconds
#
# Revision: 0
# Processed by: cddbd v1.5.1PL0 Copyright (c) Steve Scherf et al.
# Submitted via: CDex 1.50
#
DISCID=950c250c
DTITLE=Bobby Pickwood - Bobby Pickwood Swing... and Plays
DYEAR=1997
DGENRE=Jazz
TTITLE0=Makin' Whoopee
TTITLE1=Do You Know What It Means To Miss New Orleans
TTITLE2=Hackensack
TTITLE3=All That Jazz
TTITLE4=I've Got The Blues So Bad
TTITLE5=Saturday Night Fish Fry
TTITLE6=You've Changed
TTITLE7=Basin Street Blues - Sleepy Time Down South
TTITLE8=Jeannine
TTITLE9=In The Wee Small Hours Of The Morning
TTITLE10=A Night In Tunisia
TTITLE11=In The Mood
EXTD=YEAR: 1997
EXTT0=
EXTT1=
EXTT2=
EXTT3=
EXTT4=
EXTT5=
EXTT6=
EXTT7=
EXTT8=
EXTT9=
EXTT10=
EXTT11=
PLAYORDER=
